# xmcd
#
# Track frame offsets: 
#        150
#        17104
#        33883
#        50506
#        65309
#        83480
#        98661
#        116686
#        133267
#        149277
#        165386
#        181464
#        203030
#
# Disc length: 2970 seconds
#
# Revision: 5
# Processed by: cddbd v1.5.2PL0 Copyright (c) Steve Scherf et al.
# Submitted via: ExactAudioCopy v0.99pb5
#
DISCID=a80b980d
DTITLE=Clay Walker - A Few Questions
DYEAR=2003
DGENRE=Country
TTITLE0=A Few Questions
TTITLE1=Everybody Needs Love
TTITLE2=Sweet Sun Angel
TTITLE3=Jesus Was A Country Boy
TTITLE4=I Can't Sleep
TTITLE5=Coming Back Again
TTITLE6=Heaven Leave The Light On
TTITLE7=I'm In The Mood For You
TTITLE8=When She's Good She's Good
TTITLE9=This Is What Matters
TTITLE10=Countrified
TTITLE11=I Don't Want To Know
TTITLE12=I Can't Forget Her
EXTD=
EXTT0=
EXTT1=
EXTT2=
EXTT3=
EXTT4=
EXTT5=
EXTT6=
EXTT7=
EXTT8=
EXTT9=
EXTT10=
EXTT11=
EXTT12=
PLAYORDER=
